<?xml version="1.0" encoding="UTF-8"?>
<svg id="Layer_2" data-name="Layer 2" xmlns="http://www.w3.org/2000/svg" xmlns:xlink="http://www.w3.org/1999/xlink" viewBox="0 0 14.45 15.65">
  <defs>
    <style>
      .cls-1 {
        fill: none;
      }

      .cls-2 {
        fill: #5f318b;
      }

      .cls-3 {
        clip-path: url(#clippath);
      }
    </style>
    <clipPath id="clippath">
      <rect class="cls-1" width="14.45" height="15.65"/>
    </clipPath>
  </defs>
  <g id="Layer_7" data-name="Layer 7">
    <g class="cls-3">
      <path class="cls-2" d="M5.02,5.66c.12,3.3,4.86,3.3,4.98,0-.12-3.29-4.86-3.3-4.98,0Z"/>
      <path class="cls-2" d="M7.51,13.06c-.24-.28-3.62-4-3.66-7.41,0-.49.09-.96.28-1.41.19-.45.45-.85.8-1.19.34-.34.74-.61,1.19-.8.45-.19.92-.28,1.4-.28s.96.09,1.4.28c.45.19.85.45,1.19.8.34.34.61.74.8,1.19.19.45.28.92.28,1.41-.05,3.81-3.41,7.11-3.68,7.41ZM7.51,0c-.49,0-.98.05-1.47.15-.48.1-.95.24-1.41.43-.46.19-.89.42-1.3.7s-.79.59-1.14.94c-.35.35-.66.73-.94,1.14-.27.41-.51.84-.7,1.3-.19.46-.33.93-.43,1.41C.04,6.54,0,7.03,0,7.53c.41,9.98,14.63,9.97,15.04,0,0-.49-.05-.98-.15-1.47-.1-.48-.24-.95-.43-1.41-.19-.46-.42-.89-.7-1.3-.27-.41-.59-.79-.94-1.14s-.73-.66-1.14-.94c-.41-.27-.84-.51-1.3-.7-.46-.19-.93-.33-1.41-.43-.48-.1-.97-.15-1.47-.15Z"/>
    </g>
  </g>
</svg>