<?xml version="1.0" encoding="UTF-8"?>
<svg id="Layer_2" data-name="Layer 2" xmlns="http://www.w3.org/2000/svg" xmlns:xlink="http://www.w3.org/1999/xlink" viewBox="0 0 14.45 14.45">
  <defs>
    <style>
      .cls-1 {
        fill: none;
      }

      .cls-2 {
        fill: #5f318b;
      }

      .cls-3 {
        clip-path: url(#clippath);
      }
    </style>
    <clipPath id="clippath">
      <rect class="cls-1" width="14.45" height="14.45"/>
    </clipPath>
  </defs>
  <g id="Layer_7" data-name="Layer 7">
    <g class="cls-3">
      <path class="cls-2" d="M11.48,10.96l-.6.6c-.11.11-.42.17-.43.17-1.9.02-3.74-.73-5.08-2.08-1.35-1.35-2.1-3.19-2.08-5.1,0,0,.07-.31.18-.41l.6-.6c.22-.22.64-.32.94-.22l.13.04c.3.1.61.43.69.73l.3,1.11c.08.3-.03.73-.25.95l-.4.4c.39,1.46,1.54,2.61,3,3l.4-.4c.22-.22.65-.33.95-.25l1.11.3c.3.08.63.39.73.69l.04.13c.1.3,0,.72-.22.94ZM7.51,0C3.36,0,0,3.36,0,7.51s3.36,7.51,7.51,7.51,7.51-3.36,7.51-7.51S11.66,0,7.51,0Z"/>
    </g>
  </g>
</svg>