<?xml version="1.0" encoding="UTF-8"?>
<svg id="Layer_2" data-name="Layer 2" xmlns="http://www.w3.org/2000/svg" xmlns:xlink="http://www.w3.org/1999/xlink" viewBox="0 0 14.45 14.45">
  <defs>
    <style>
      .cls-1 {
        fill: none;
      }

      .cls-2 {
        fill: #5f318b;
      }

      .cls-3 {
        clip-path: url(#clippath);
      }
    </style>
    <clipPath id="clippath">
      <rect class="cls-1" width="14.45" height="14.45"/>
    </clipPath>
  </defs>
  <g id="Layer_7" data-name="Layer 7">
    <g class="cls-3">
      <path class="cls-2" d="M5.71,3.55c-.89.36-1.56.96-2,1.81h1.24c.13-.65.39-1.26.76-1.81Z"/>
      <path class="cls-2" d="M4.76,7.14c0-.4.03-.8.09-1.19h-1.38c-.26.79-.26,1.59,0,2.38h1.38c-.06-.39-.08-.79-.09-1.19Z"/>
      <path class="cls-2" d="M8.72,5.35c-.32-1.29-.96-2.08-1.58-2.08s-1.26.79-1.58,2.08h3.15Z"/>
      <path class="cls-2" d="M5.35,7.14c0,.4.03.8.09,1.19h3.39c.12-.79.12-1.59,0-2.38h-3.39c-.06.39-.09.79-.09,1.19Z"/>
      <path class="cls-2" d="M3.71,8.92c.44.85,1.11,1.45,2,1.81-.38-.55-.63-1.15-.76-1.81h-1.24Z"/>
      <path class="cls-2" d="M9.52,7.14c0,.4-.03.8-.09,1.19h1.38c.26-.79.26-1.59,0-2.38h-1.38c.06.39.08.79.09,1.19Z"/>
      <path class="cls-2" d="M7.14,11.6c-.59,0-1.16-.11-1.71-.34-.55-.23-1.03-.55-1.45-.97s-.74-.9-.97-1.45c-.23-.55-.34-1.12-.34-1.71,0-.59.11-1.16.34-1.71.23-.55.55-1.03.97-1.45.42-.42.9-.74,1.45-.97.55-.23,1.12-.34,1.71-.34s1.16.11,1.71.34,1.03.55,1.45.97c.42.42.74.9.97,1.45.23.55.34,1.12.34,1.71,0,.59-.11,1.16-.34,1.71-.23.55-.55,1.03-.97,1.45-.42.42-.9.74-1.45.97-.55.23-1.12.34-1.71.34ZM7.14,0c-.47,0-.93.05-1.39.14-.46.09-.91.23-1.34.41s-.84.4-1.23.66c-.39.26-.75.56-1.08.89-.33.33-.63.69-.89,1.08-.26.39-.48.8-.66,1.23-.18.43-.31.88-.41,1.34C.05,6.21,0,6.67,0,7.14c0,.47.05.93.14,1.39.09.46.23.91.41,1.34.18.43.4.84.66,1.23s.56.75.89,1.08c.33.33.69.63,1.08.89.39.26.8.48,1.23.66.43.18.88.31,1.34.41.46.09.92.14,1.39.14s.93-.05,1.39-.14c.46-.09.91-.23,1.34-.41.43-.18.84-.4,1.23-.66.39-.26.75-.56,1.08-.89.33-.33.63-.69.89-1.08.26-.39.48-.8.66-1.23.18-.43.31-.88.41-1.34.09-.46.14-.92.14-1.39,0-.47-.05-.93-.14-1.39s-.23-.91-.41-1.34c-.18-.43-.4-.84-.66-1.23-.26-.39-.56-.75-.89-1.08-.33-.33-.69-.63-1.08-.89-.39-.26-.8-.48-1.23-.66-.43-.18-.88-.32-1.34-.41-.46-.09-.92-.14-1.39-.14Z"/>
      <path class="cls-2" d="M5.56,8.92c.32,1.29.96,2.08,1.58,2.08s1.26-.79,1.58-2.08h-3.15Z"/>
      <path class="cls-2" d="M8.56,3.55c.38.55.63,1.15.76,1.81h1.24c-.44-.85-1.11-1.45-2-1.81Z"/>
      <path class="cls-2" d="M8.56,10.73c.89-.36,1.56-.96,2-1.81h-1.24c-.13.65-.39,1.26-.76,1.81Z"/>
    </g>
  </g>
</svg>