<?xml version="1.0" encoding="UTF-8"?>
<svg id="Layer_2" data-name="Layer 2" xmlns="http://www.w3.org/2000/svg" xmlns:xlink="http://www.w3.org/1999/xlink" viewBox="0 0 28.37 28.37">
  <defs>
    <style>
      .cls-1 {
        fill: none;
      }

      .cls-2 {
        fill: #fff;
      }

      .cls-3 {
        fill: #b59967;
      }

      .cls-4 {
        clip-path: url(#clippath);
      }
    </style>
    <clipPath id="clippath">
      <rect class="cls-1" width="28.37" height="28.37"/>
    </clipPath>
  </defs>
  <g id="Layer_6" data-name="Layer 6">
    <g class="cls-4">
      <path class="cls-3" d="M14.18.64c.89,0,1.77.09,2.64.26.87.17,1.72.43,2.54.77s1.6.76,2.34,1.25,1.42,1.06,2.05,1.68c.63.63,1.19,1.31,1.68,2.05.49.74.91,1.52,1.25,2.34.34.82.6,1.67.77,2.54.17.87.26,1.75.26,2.64s-.09,1.77-.26,2.64c-.17.87-.43,1.72-.77,2.54-.34.82-.76,1.6-1.25,2.34-.49.74-1.06,1.42-1.68,2.05-.63.63-1.31,1.19-2.05,1.68-.74.49-1.52.91-2.34,1.25s-1.67.6-2.54.77c-.87.17-1.75.26-2.64.26s-1.77-.09-2.64-.26c-.87-.17-1.72-.43-2.54-.77s-1.6-.76-2.34-1.25c-.74-.49-1.42-1.06-2.05-1.68-.63-.63-1.19-1.31-1.68-2.05-.49-.74-.91-1.52-1.25-2.34-.34-.82-.6-1.67-.77-2.54-.17-.87-.26-1.75-.26-2.64s.09-1.77.26-2.64c.17-.87.43-1.72.77-2.54.34-.82.76-1.6,1.25-2.34.49-.74,1.06-1.42,1.68-2.05s1.31-1.19,2.05-1.68c.74-.49,1.52-.91,2.34-1.25s1.67-.6,2.54-.77c.87-.17,1.75-.26,2.64-.26Z"/>
      <path class="cls-2" d="M19.95,20.48h-2.55v-4.02c0-.97-.03-2.19-1.36-2.19s-1.52,1.02-1.52,2.11v4.1h-2.58v-8.28h2.47v1.14h.03c.36-.64,1.19-1.33,2.44-1.33,2.6,0,3.1,1.72,3.1,3.93v4.54h-.03ZM9.03,11.09c-.8,0-1.47-.69-1.47-1.52s.66-1.47,1.47-1.47,1.5.66,1.5,1.47-.66,1.52-1.5,1.52ZM10.34,20.48h-2.58v-8.28h2.58v8.28Z"/>
    </g>
  </g>
</svg>