<?xml version="1.0" encoding="UTF-8"?>
<svg id="Layer_2" data-name="Layer 2" xmlns="http://www.w3.org/2000/svg" xmlns:xlink="http://www.w3.org/1999/xlink" viewBox="0 0 14.45 14.45">
  <defs>
    <style>
      .cls-1 {
        fill: none;
      }

      .cls-2 {
        fill: #5f318b;
        fill-rule: evenodd;
      }

      .cls-3 {
        clip-path: url(#clippath);
      }
    </style>
    <clipPath id="clippath">
      <rect class="cls-1" width="14.45" height="14.45"/>
    </clipPath>
  </defs>
  <g id="Layer_7" data-name="Layer 7">
    <g class="cls-3">
      <path class="cls-2" d="M11.39,4.88l.13-.11v5.66c0,.2-.16.36-.36.36H3.87c-.2,0-.36-.16-.36-.36v-5.66l.13.11h0s3.64,2.92,3.64,2.92c.13.11.32.11.46,0l3.64-2.91h0ZM4.1,4.32l3.41,2.73,3.41-2.73.1-.08h-7.02l.1.08ZM7.51,15.03c4.15,0,7.51-3.36,7.51-7.51S11.67,0,7.51,0,0,3.36,0,7.51s3.36,7.51,7.51,7.51Z"/>
    </g>
  </g>
</svg>