<?xml version="1.0" encoding="UTF-8"?>
<svg id="Layer_2" data-name="Layer 2" xmlns="http://www.w3.org/2000/svg" xmlns:xlink="http://www.w3.org/1999/xlink" viewBox="0 0 28.37 28.37">
  <defs>
    <style>
      .cls-1 {
        fill: none;
      }

      .cls-2 {
        fill: #fff;
      }

      .cls-3 {
        fill: #b59967;
      }

      .cls-4 {
        clip-path: url(#clippath);
      }
    </style>
    <clipPath id="clippath">
      <rect class="cls-1" width="28.37" height="28.37"/>
    </clipPath>
  </defs>
  <g id="Layer_6" data-name="Layer 6">
    <g class="cls-4">
      <path class="cls-3" d="M14.18.68c.89,0,1.77.09,2.64.26s1.71.43,2.53.77c.82.34,1.6.76,2.34,1.25.74.49,1.42,1.05,2.05,1.68.63.63,1.19,1.31,1.68,2.05.49.74.91,1.52,1.25,2.34.34.82.6,1.66.77,2.53.17.87.26,1.75.26,2.64,0,.89-.09,1.77-.26,2.64-.17.87-.43,1.71-.77,2.53-.34.82-.76,1.6-1.25,2.34s-1.05,1.42-1.68,2.05c-.63.63-1.31,1.19-2.05,1.68-.74.49-1.52.91-2.34,1.25-.82.34-1.66.6-2.53.77-.87.17-1.75.26-2.64.26-.89,0-1.77-.09-2.64-.26-.87-.17-1.71-.43-2.53-.77-.82-.34-1.6-.76-2.34-1.25-.74-.49-1.42-1.05-2.05-1.68-.63-.63-1.19-1.31-1.68-2.05s-.91-1.52-1.25-2.34c-.34-.82-.6-1.66-.77-2.53s-.26-1.75-.26-2.64c0-.89.09-1.77.26-2.64.17-.87.43-1.71.77-2.53s.76-1.6,1.25-2.34c.49-.74,1.05-1.42,1.68-2.05.63-.63,1.31-1.19,2.05-1.68.74-.49,1.52-.91,2.34-1.25.82-.34,1.66-.6,2.53-.77.87-.17,1.75-.26,2.64-.26Z"/>
      <path class="cls-2" d="M17.39,16.1h-2.37v7.09h-3.17v-7.09h-2.6v-2.91h2.6v-2.25c0-2.53,1.52-3.96,3.83-3.96,1.11,0,2.28.22,2.28.22v2.5h-1.3c-1.27,0-1.65.76-1.65,1.58v1.9h2.82l-.44,2.91Z"/>
    </g>
  </g>
</svg>