<?xml version="1.0" encoding="UTF-8"?>
<svg id="Layer_2" data-name="Layer 2" xmlns="http://www.w3.org/2000/svg" xmlns:xlink="http://www.w3.org/1999/xlink" viewBox="0 0 14.45 14.45">
  <defs>
    <style>
      .cls-1 {
        fill: none;
      }

      .cls-2 {
        fill: #5f318b;
        fill-rule: evenodd;
      }

      .cls-3 {
        clip-path: url(#clippath);
      }
    </style>
    <clipPath id="clippath">
      <rect class="cls-1" width="14.45" height="14.45"/>
    </clipPath>
  </defs>
  <g id="Layer_7" data-name="Layer 7">
    <g class="cls-3">
      <path class="cls-2" d="M10.17,11.92v-3.25h-4.86v3.25h4.86ZM11.92,9.33v-3.63c0-.15-.12-.28-.28-.28H3.39c-.15,0-.28.12-.28.28v3.63c0,.15.12.28.28.28h1.3v-1.26c0-.17.14-.31.31-.31h5.49c.17,0,.31.14.31.31v1.26h.84c.15,0,.28-.12.28-.28ZM5.31,3.11v1.68h4.86v-.8l-.89-.89h-3.97ZM7.51,0c4.15,0,7.51,3.36,7.51,7.51s-3.36,7.51-7.51,7.51S0,11.67,0,7.51C0,3.36,3.36,0,7.51,0Z"/>
    </g>
  </g>
</svg>
