<?xml version="1.0" encoding="UTF-8"?>
<svg id="Layer_2" data-name="Layer 2" xmlns="http://www.w3.org/2000/svg" xmlns:xlink="http://www.w3.org/1999/xlink" viewBox="0 0 28.37 28.37">
  <defs>
    <style>
      .cls-1 {
        fill: none;
      }

      .cls-2 {
        fill: #fff;
      }

      .cls-3 {
        fill: #b59967;
      }

      .cls-4 {
        clip-path: url(#clippath);
      }
    </style>
    <clipPath id="clippath">
      <rect class="cls-1" width="28.37" height="28.37"/>
    </clipPath>
  </defs>
  <g id="Layer_6" data-name="Layer 6">
    <g class="cls-4">
      <path class="cls-3" d="M14.18.68c.89,0,1.77.09,2.64.26s1.71.43,2.53.77c.82.34,1.6.76,2.34,1.25.74.49,1.42,1.05,2.05,1.68.63.63,1.19,1.31,1.68,2.05.49.74.91,1.52,1.25,2.34.34.82.6,1.66.77,2.53.17.87.26,1.75.26,2.64s-.09,1.77-.26,2.64c-.17.87-.43,1.71-.77,2.53-.34.82-.76,1.6-1.25,2.34-.49.74-1.05,1.42-1.68,2.05-.63.63-1.31,1.19-2.05,1.68-.74.49-1.52.91-2.34,1.25-.82.34-1.66.6-2.53.77-.87.17-1.75.26-2.64.26-.89,0-1.77-.09-2.64-.26-.87-.17-1.71-.43-2.53-.77-.82-.34-1.6-.76-2.34-1.25-.74-.49-1.42-1.05-2.05-1.68-.63-.63-1.19-1.31-1.68-2.05s-.91-1.52-1.25-2.34c-.34-.82-.6-1.66-.77-2.53-.17-.87-.26-1.75-.26-2.64s.09-1.77.26-2.64c.17-.87.43-1.71.77-2.53s.76-1.6,1.25-2.34c.49-.74,1.05-1.42,1.68-2.05.63-.63,1.31-1.19,2.05-1.68.74-.49,1.52-.91,2.34-1.25.82-.34,1.66-.6,2.53-.77s1.75-.26,2.64-.26Z"/>
      <path class="cls-2" d="M18.98,17.85c.35-.84.26-2.87.26-3.83s.09-2.96-.26-3.83c-.23-.55-.67-1.02-1.22-1.22-.87-.35-2.9-.26-3.83-.26s-2.99-.09-3.83.26c-.58.23-1.02.67-1.25,1.22-.35.87-.26,2.9-.26,3.83s-.09,2.99.26,3.83c.23.58.67,1.02,1.25,1.25.84.35,2.87.26,3.83.26s2.96.09,3.83-.26c.55-.23,1.02-.67,1.22-1.25ZM20.37,11.35c.06,1.07.06,4.3,0,5.37-.06,1.04-.29,1.94-1.04,2.73-.75.75-1.68.99-2.73,1.04-1.07.06-4.3.06-5.37,0-1.04-.06-1.94-.29-2.73-1.04-.75-.78-.99-1.68-1.04-2.73-.06-1.07-.06-4.3,0-5.37.06-1.04.29-1.97,1.04-2.73.78-.75,1.68-.99,2.73-1.04,1.07-.06,4.3-.06,5.37,0,1.04.06,1.97.29,2.73,1.04.75.75.99,1.68,1.04,2.73ZM18.17,10.56c0,.44-.35.78-.78.78s-.78-.35-.78-.78.35-.78.78-.78.78.35.78.78ZM13.93,16.19c1.19,0,2.15-.96,2.15-2.18s-.96-2.15-2.15-2.15-2.18.96-2.18,2.15.99,2.18,2.18,2.18ZM13.93,10.68c1.83,0,3.34,1.51,3.34,3.34s-1.51,3.34-3.34,3.34-3.34-1.48-3.34-3.34,1.48-3.34,3.34-3.34Z"/>
    </g>
  </g>
</svg>
