<?xml version="1.0" encoding="UTF-8"?>
<svg id="Layer_2" data-name="Layer 2" xmlns="http://www.w3.org/2000/svg" xmlns:xlink="http://www.w3.org/1999/xlink" viewBox="0 0 30.26 32.15">
  <defs>
    <style>
      .cls-1 {
        fill: none;
      }

      .cls-2 {
        fill: #fff;
      }

      .cls-3 {
        fill: #b59967;
      }

      .cls-4 {
        clip-path: url(#clippath);
      }
    </style>
    <clipPath id="clippath">
      <rect class="cls-1" width="30.26" height="32.15"/>
    </clipPath>
  </defs>
  <g id="Layer_6" data-name="Layer 6">
    <g class="cls-4">
      <path class="cls-3" d="M15.13,3.49c.95,0,1.88.09,2.81.27.93.18,1.83.44,2.7.8.87.35,1.7.78,2.49,1.29.79.51,1.51,1.09,2.18,1.74.67.65,1.27,1.36,1.79,2.12.53.76.97,1.57,1.33,2.42.36.85.64,1.72.82,2.62.18.9.28,1.81.28,2.73s-.09,1.83-.28,2.73c-.18.9-.46,1.77-.82,2.62-.36.85-.81,1.65-1.33,2.42-.53.76-1.12,1.47-1.79,2.12-.67.65-1.4,1.23-2.18,1.74-.79.51-1.62.94-2.49,1.29s-1.78.62-2.7.8c-.93.18-1.86.27-2.81.27s-1.88-.09-2.81-.27c-.93-.18-1.83-.44-2.7-.8-.87-.35-1.7-.78-2.49-1.29-.79-.51-1.51-1.09-2.18-1.74-.67-.65-1.27-1.36-1.79-2.12-.53-.76-.97-1.57-1.33-2.42-.36-.85-.64-1.72-.82-2.62-.18-.9-.28-1.81-.28-2.73s.09-1.83.28-2.73c.18-.9.46-1.77.82-2.62.36-.85.81-1.65,1.33-2.42.53-.76,1.12-1.47,1.79-2.12.67-.65,1.4-1.23,2.18-1.74.79-.51,1.62-.94,2.49-1.29.87-.35,1.78-.62,2.7-.8.93-.18,1.86-.27,2.81-.27Z"/>
      <path class="cls-2" d="M21.79,15.92c-1.39.03-2.69-.39-3.81-1.17v5.38c0,3.75-4.21,6.1-7.55,4.23-3.34-1.89-3.34-6.58,0-8.47.96-.54,2.1-.75,3.22-.6v2.7c-1.7-.54-3.34.93-2.97,2.61.4,1.68,2.51,2.34,3.84,1.17.46-.42.74-1.02.74-1.65v-10.51h2.72c0,.24,0,.45.06.69.19.99.77,1.86,1.67,2.4.59.39,1.33.6,2.07.6v2.61Z"/>
    </g>
  </g>
</svg>
